<?xml version="1.0" standalone="no"?>
<!DOCTYPE svg PUBLIC "-//W3C//DTD SVG 20010904//EN"
 "http://www.w3.org/TR/2001/REC-SVG-20010904/DTD/svg10.dtd">
<svg version="1.0" xmlns="http://www.w3.org/2000/svg"
 width="225.000000pt" height="116.000000pt" viewBox="0 0 225.000000 116.000000"
 preserveAspectRatio="xMidYMid meet">

<g transform="translate(0.000000,116.000000) scale(0.100000,-0.100000)"
fill="#000000" stroke="none">
<path d="M369 1074 c-62 -24 -118 -45 -124 -48 -5 -2 16 -11 48 -20 52 -16 57
-20 57 -46 l0 -29 41 14 c52 19 122 19 182 1 44 -13 47 -13 47 5 0 24 -29 39
-93 46 -29 3 -59 9 -67 14 -25 14 50 10 110 -5 49 -13 61 -13 110 1 30 9 48
18 40 21 -8 2 -65 24 -126 47 l-112 42 -113 -43z"/>
<path d="M451 789 c-52 -16 -80 -38 -102 -80 -37 -73 -16 -155 48 -187 21 -11
70 -27 110 -36 126 -28 143 -38 143 -88 0 -49 -81 -79 -159 -58 -33 9 -45 18
-58 45 -16 33 -20 35 -66 35 -49 0 -49 0 -42 -27 12 -50 40 -88 86 -113 37
-21 57 -25 129 -25 100 0 155 23 189 78 31 50 29 126 -4 165 -29 34 -51 44
-165 72 -106 27 -130 41 -130 80 0 39 35 62 95 62 56 1 90 -16 106 -53 10 -26
16 -29 55 -29 42 0 44 2 44 29 0 39 -37 90 -83 114 -44 23 -146 31 -196 16z"/>
<path d="M1438 782 c-16 -3 -18 -18 -18 -130 0 -139 1 -139 51 -37 37 77 40
147 7 161 -13 6 -31 8 -40 6z"/>
<path d="M1559 773 c19 -38 13 -114 -14 -170 -13 -29 -22 -53 -19 -53 3 0 16
24 29 53 29 61 33 143 9 173 -15 18 -15 18 -5 -3z"/>
<path d="M840 520 l0 -260 45 0 45 0 1 223 c0 134 4 214 9 202 5 -11 28 -110
52 -220 l43 -200 51 -3 50 -3 51 223 51 223 1 -222 1 -223 50 0 50 0 0 260 0
260 -77 0 -78 0 -44 -198 c-25 -108 -46 -199 -48 -201 -7 -10 -14 12 -48 164
-20 88 -40 177 -46 198 l-10 37 -74 0 -75 0 0 -260z"/>
<path d="M1650 740 l0 -40 80 0 80 0 0 -220 0 -220 50 0 50 0 2 218 3 217 78
3 77 3 0 39 0 40 -210 0 -210 0 0 -40z"/>
<path d="M1560 559 c0 -5 -17 -36 -39 -67 -57 -84 -71 -117 -71 -160 0 -48 11
-58 73 -64 l47 -6 0 154 c0 85 -2 154 -5 154 -3 0 -5 -5 -5 -11z"/>
<path d="M320 135 c0 -9 7 -18 15 -21 20 -8 19 -21 -2 -27 -14 -4 -12 -5 5 -6
25 -1 31 26 6 36 -8 3 -13 12 -10 19 3 8 1 14 -4 14 -6 0 -10 -7 -10 -15z"/>
<path d="M420 135 c6 -8 10 -18 7 -22 -3 -4 1 -14 9 -21 17 -15 17 -14 3 27
-6 17 -16 31 -21 31 -6 0 -6 -6 2 -15z"/>
<path d="M471 145 c-1 -6 3 -15 8 -20 5 -6 11 -18 13 -28 2 -12 7 -5 15 20 9
30 9 35 -1 21 -11 -15 -13 -15 -23 0 -7 9 -12 12 -12 7z"/>
<path d="M552 118 c-2 -34 1 -38 21 -37 15 1 17 3 5 6 -10 2 -18 17 -21 36 -4
31 -4 31 -5 -5z"/>
<path d="M637 143 c-4 -3 -7 -11 -7 -17 0 -6 5 -4 10 4 7 10 10 11 11 3 1 -7
3 -17 4 -23 1 -5 3 -14 4 -20 0 -5 5 -10 10 -10 5 0 4 15 -2 35 -10 35 -17 41
-30 28z"/>
<path d="M711 113 c1 -36 2 -36 8 -9 l6 29 14 -26 c20 -38 31 -34 30 11 -1 36
-1 37 -8 7 l-8 -30 -13 28 c-18 38 -30 34 -29 -10z"/>
<path d="M900 115 c0 -19 2 -35 4 -35 2 0 6 16 8 35 2 19 0 35 -4 35 -4 0 -8
-16 -8 -35z"/>
<path d="M956 134 c-4 -9 -4 -19 -1 -22 3 -3 6 1 6 9 1 8 5 1 9 -16 8 -30 8
-30 9 8 1 38 -12 50 -23 21z"/>
<path d="M1022 114 c-9 -30 -8 -33 4 -23 7 6 12 14 10 18 -3 4 -1 13 3 20 6 8
11 2 16 -21 4 -18 9 -28 11 -22 6 14 -13 64 -24 64 -5 0 -14 -16 -20 -36z"/>
<path d="M1110 136 c0 -7 7 -20 16 -27 15 -12 14 -14 -7 -20 -23 -7 -23 -7 -2
-8 30 -1 40 19 17 36 -16 12 -17 15 -4 23 13 8 12 10 -2 10 -10 0 -18 -6 -18
-14z"/>
<path d="M1180 135 c0 -9 7 -18 15 -21 20 -8 19 -21 -2 -27 -14 -4 -12 -5 5
-6 25 -1 30 20 7 39 -8 7 -12 16 -9 21 3 5 0 9 -5 9 -6 0 -11 -7 -11 -15z"/>
<path d="M1303 115 c0 -22 2 -30 4 -17 2 12 2 30 0 40 -3 9 -5 -1 -4 -23z"/>
<path d="M1347 142 c6 -4 13 -21 16 -37 l4 -30 2 32 c0 17 7 34 14 36 6 3 -1
6 -18 6 -16 0 -25 -3 -18 -7z"/>
<path d="M1467 142 c6 -4 13 -21 16 -37 l4 -30 2 32 c0 17 7 34 14 36 6 3 -1
6 -18 6 -16 0 -25 -3 -18 -7z"/>
<path d="M1558 143 c25 -5 30 -23 7 -23 -8 0 -15 -5 -15 -11 0 -5 4 -8 9 -4 6
3 14 -2 18 -10 7 -11 9 -6 10 20 1 32 -1 35 -25 34 -24 -2 -24 -2 -4 -6z"/>
<path d="M1640 139 c0 -5 4 -8 9 -5 5 3 12 -9 16 -27 4 -17 9 -27 11 -21 6 15
-13 64 -26 64 -5 0 -10 -5 -10 -11z"/>
<path d="M1723 115 c0 -22 2 -30 4 -17 2 12 2 30 0 40 -3 9 -5 -1 -4 -23z"/>
<path d="M1770 140 c0 -5 4 -10 8 -10 5 0 14 -12 21 -26 6 -15 14 -24 17 -22
2 3 -3 19 -13 37 -18 30 -33 40 -33 21z"/>
<path d="M1863 115 c0 -22 2 -30 4 -17 2 12 2 30 0 40 -3 9 -5 -1 -4 -23z"/>
<path d="M1911 113 c1 -37 1 -38 8 -8 l8 30 13 -27 c18 -39 30 -35 29 10 -1
35 -2 36 -8 8 l-6 -30 -12 27 c-18 38 -33 33 -32 -10z"/>
<path d="M2009 134 c-16 -20 -1 -48 30 -52 16 -3 21 2 21 17 0 12 -4 21 -10
21 -5 0 -7 -7 -4 -15 4 -9 0 -15 -9 -15 -17 0 -28 22 -19 37 4 6 16 13 27 16
19 4 19 5 -1 6 -12 0 -27 -6 -35 -15z"/>
<path d="M401 123 c-1 -6 -4 -20 -7 -30 -5 -17 -5 -17 6 0 6 10 9 23 6 30 -3
9 -5 9 -5 0z"/>
<path d="M925 110 c9 -30 13 -35 21 -27 3 3 -2 16 -11 29 l-17 23 7 -25z"/>
<path d="M1627 101 c-4 -17 -3 -21 5 -13 5 5 8 16 6 23 -3 8 -7 3 -11 -10z"/>
<path d="M1772 100 c0 -14 2 -19 5 -12 2 6 2 18 0 25 -3 6 -5 1 -5 -13z"/>
<path d="M616 94 c-5 -14 -4 -15 9 -4 17 14 19 20 6 20 -5 0 -12 -7 -15 -16z"/>
</g>
</svg>
